<?xml version="1.0" encoding="UTF-8"?> <svg xmlns:dc="http://purl.org/dc/elements/1.1/" xmlns:cc="http://creativecommons.org/ns#" xmlns:svg="http://www.w3.org/2000/svg" xmlns:rdf="http://www.w3.org/1999/02/22-rdf-syntax-ns#" xmlns="http://www.w3.org/2000/svg" xmlns:xlink="http://www.w3.org/1999/xlink" version="1.1" id="svg2" x="0px" y="0px" viewBox="0 0 603.9 175.9" style="enable-background:new 0 0 603.9 175.9;" xml:space="preserve"> <style type="text/css"> .st0{fill:#1C355E;} .st1{fill:#5DC4E7;} </style> <g id="g10" transform="matrix(1.3333333,0,0,-1.3333333,0,175.91067)"> </g> <g id="XMLID_146_"> <g id="XMLID_179_"> <path id="XMLID_214_" class="st0" d="M200.3,61v4.3h-20.8V37.5h20.3v4.3h-15.1v7.2H198v4.2h-13.4V61H200.3z"></path> <path id="XMLID_212_" class="st0" d="M243.4,65.3l0-18.4l-9.1,15.2h-2.3l-9.1-15v18.2h-4.9V37.5h4.2l11,18.4L244,37.5h4.2l0,27.7 H243.4z"></path> <path id="XMLID_209_" class="st0" d="M285.4,38.7c1.8,0.8,3.2,1.9,4.1,3.4c1,1.5,1.4,3.2,1.4,5.3c0,2-0.5,3.8-1.4,5.3 c-1,1.5-2.3,2.6-4.1,3.4c-1.8,0.8-3.9,1.2-6.3,1.2h-6.3v8h-5.2V37.5h11.4C281.5,37.5,283.6,37.9,285.4,38.7z M283.9,51.5 c1.2-1,1.7-2.3,1.7-4.1c0-1.8-0.6-3.1-1.7-4.1c-1.2-1-2.9-1.4-5.1-1.4h-6v11h6C281.1,52.9,282.8,52.4,283.9,51.5z"></path> <path id="XMLID_207_" class="st0" d="M307.9,37.5h5.2v23.4h14.5v4.4h-19.7V37.5z"></path> <path id="XMLID_205_" class="st0" d="M364.4,61v4.3h-20.8V37.5h20.3v4.3h-15.1v7.2h13.4v4.2h-13.4V61H364.4z"></path> <path id="XMLID_202_" class="st0" d="M387.2,63.8c-2.3-1.2-4.1-2.9-5.4-5.1c-1.3-2.2-1.9-4.6-1.9-7.3c0-2.7,0.6-5.1,1.9-7.3 c1.3-2.2,3.1-3.9,5.4-5.1c2.3-1.2,4.8-1.8,7.6-1.8c2.8,0,5.4,0.6,7.7,1.8c2.3,1.2,4.1,2.9,5.3,5.1c1.3,2.2,1.9,4.6,1.9,7.3 c0,2.7-0.6,5.2-1.9,7.3c-1.3,2.2-3.1,3.9-5.3,5.1c-2.3,1.2-4.8,1.8-7.7,1.8C392,65.7,389.5,65.1,387.2,63.8z M399.8,59.9 c1.5-0.8,2.6-2,3.5-3.5c0.8-1.5,1.3-3.2,1.3-5c0-1.8-0.4-3.5-1.3-5c-0.8-1.5-2-2.7-3.5-3.5c-1.5-0.8-3.1-1.2-5-1.2s-3.5,0.4-5,1.2 c-1.5,0.8-2.6,2-3.5,3.5c-0.8,1.5-1.3,3.2-1.3,5c0,1.9,0.4,3.5,1.3,5c0.8,1.5,2,2.7,3.5,3.5c1.5,0.8,3.1,1.2,5,1.2 S398.4,60.7,399.8,59.9z"></path> <path id="XMLID_200_" class="st0" d="M181.9,105c-2-0.6-3.6-1.4-4.7-2.4l1.8-4c1.1,0.9,2.5,1.6,4.2,2.2c1.7,0.6,3.3,0.9,5,0.9 c2.1,0,3.6-0.3,4.6-1c1-0.7,1.5-1.5,1.5-2.6c0-0.8-0.3-1.4-0.9-2c-0.6-0.5-1.3-0.9-2.2-1.2c-0.9-0.3-2.1-0.6-3.6-1 c-2.1-0.5-3.8-1-5.1-1.5c-1.3-0.5-2.4-1.3-3.4-2.4c-0.9-1.1-1.4-2.5-1.4-4.3c0-1.5,0.4-2.9,1.2-4.2c0.8-1.3,2.1-2.3,3.8-3 c1.7-0.7,3.7-1.1,6.2-1.1c1.7,0,3.4,0.2,5,0.6c1.6,0.4,3.1,1,4.2,1.8l-1.6,4c-1.2-0.7-2.5-1.3-3.8-1.6c-1.3-0.4-2.6-0.6-3.8-0.6 c-2,0-3.5,0.3-4.5,1c-1,0.7-1.5,1.6-1.5,2.7c0,0.8,0.3,1.4,0.9,1.9c0.6,0.5,1.3,0.9,2.2,1.2c0.9,0.3,2.1,0.6,3.6,1 c2.1,0.5,3.8,1,5.1,1.5c1.3,0.5,2.5,1.3,3.4,2.4c0.9,1.1,1.4,2.5,1.4,4.3c0,1.5-0.4,2.9-1.2,4.2c-0.8,1.2-2.1,2.2-3.8,3 c-1.7,0.7-3.8,1.1-6.2,1.1C185.9,105.9,183.9,105.6,181.9,105z"></path> <path id="XMLID_197_" class="st0" d="M234.3,99.1h-13.9l-2.7,6.4h-5.3l12.5-27.7h5.1l12.5,27.7h-5.4L234.3,99.1z M232.6,95 l-5.2-12.1L222.2,95H232.6z"></path> <path id="XMLID_195_" class="st0" d="M282.5,77.8v27.7h-4.2L263,86.7v18.8h-5.1V77.8h4.2l15.3,18.8V77.8H282.5z"></path> <path id="XMLID_193_" class="st0" d="M307.5,82.1h-9.2v-4.4h23.5v4.4h-9.2v23.4h-5.2V82.1z"></path> <path id="XMLID_190_" class="st0" d="M354.2,99.1h-13.9l-2.7,6.4h-5.3l12.5-27.7h5.1l12.5,27.7H357L354.2,99.1z M352.5,95 l-5.2-12.1L342.1,95H352.5z"></path> <path id="XMLID_188_" class="st0" d="M402.5,77.8v27.7h-4.2l-15.3-18.8v18.8h-5.1V77.8h4.2l15.3,18.8V77.8H402.5z"></path> <path id="XMLID_185_" class="st0" d="M421.8,77.8h12.1c3,0,5.6,0.6,7.9,1.7c2.3,1.2,4.1,2.8,5.4,4.9c1.3,2.1,1.9,4.5,1.9,7.3 c0,2.7-0.6,5.2-1.9,7.3c-1.3,2.1-3.1,3.7-5.4,4.9c-2.3,1.1-4.9,1.7-7.9,1.7h-12.1V77.8z M433.7,101.1c2,0,3.8-0.4,5.4-1.2 c1.5-0.8,2.7-1.9,3.6-3.3c0.8-1.4,1.2-3.1,1.2-5c0-1.9-0.4-3.6-1.2-5s-2-2.6-3.6-3.3c-1.5-0.8-3.3-1.2-5.4-1.2h-6.7v19H433.7z"></path> <path id="XMLID_183_" class="st0" d="M487.2,101.2v4.3h-20.8V77.8h20.3v4.3h-15.1v7.2H485v4.2h-13.4v7.6H487.2z"></path> <path id="XMLID_180_" class="st0" d="M523,105.5l-5.7-8.1c-0.2,0-0.6,0-1.1,0H510v8.1h-5.2V77.8h11.4c2.4,0,4.5,0.4,6.3,1.2 c1.8,0.8,3.2,1.9,4.1,3.4c1,1.5,1.4,3.2,1.4,5.3c0,2.1-0.5,3.9-1.5,5.4c-1,1.5-2.5,2.6-4.4,3.4l6.4,9.1H523z M521.2,83.5 c-1.2-1-2.9-1.4-5.1-1.4h-6v11.1h6c2.2,0,4-0.5,5.1-1.4c1.2-1,1.7-2.3,1.7-4.1C522.9,85.9,522.3,84.5,521.2,83.5z"></path> </g> <g id="XMLID_163_"> <path id="XMLID_177_" class="st1" d="M190.6,143.8c-3.6,0-6.4-1.1-8.5-3.4s-3.1-5.3-3.1-9.3c0-3.8,1.1-6.8,3.3-9 c2.2-2.3,5-3.4,8.6-3.4c2.9,0,5.3,0.7,7.2,2l-1.4,3.4c-1.9-1.2-3.8-1.7-5.7-1.7c-2.2,0-4,0.8-5.3,2.4c-1.3,1.6-2,3.8-2,6.5 c0,2.8,0.6,5,1.9,6.5c1.3,1.5,3.1,2.3,5.4,2.3c2,0,4.1-0.5,6.1-1.5l0.6,3.5C195.7,143.2,193.4,143.8,190.6,143.8z"></path> <path id="XMLID_175_" class="st1" d="M215.4,143.4V119h4.5v24.4H215.4z"></path> <path id="XMLID_173_" class="st1" d="M248.4,143.8c-3.2,0-5.6-0.8-7.3-2.4c-1.7-1.6-2.5-3.8-2.5-6.7V119h4.5v15.2 c0,2,0.4,3.5,1.2,4.4c0.8,0.9,2.2,1.4,4.1,1.4c1.9,0,3.2-0.5,4-1.4c0.8-0.9,1.2-2.4,1.2-4.5V119h4.5v15.7c0,2.9-0.8,5.1-2.5,6.7 C254.1,143,251.7,143.8,248.4,143.8z"></path> <path id="XMLID_170_" class="st1" d="M277,143.4V119h7.1c2.1,0,4,0.2,5.7,0.7c1.7,0.5,3.1,1.2,4.4,2.2c1.2,1,2.1,2.2,2.8,3.8 c0.6,1.5,1,3.3,1,5.4c0,3.9-1.2,7-3.6,9.1c-2.4,2.1-5.7,3.2-9.9,3.2H277z M281.5,139.8h3.2c2.8,0,4.9-0.7,6.4-2.2 c1.5-1.5,2.2-3.6,2.2-6.4c0-3-0.7-5.2-2.2-6.5c-1.5-1.4-3.8-2-6.8-2h-2.7V139.8z"></path> <path id="XMLID_167_" class="st1" d="M312.3,143.4l9-24.4h4.9l8.8,24.4h-4.6l-2.4-6.9h-8.5l-2.4,6.9H312.3z M320.6,133.2h6.3 c-2-6.4-3-9.7-3.1-9.9L320.6,133.2z"></path> <path id="XMLID_164_" class="st1" d="M351.1,143.4V119h7.1c2.1,0,4,0.2,5.7,0.7c1.7,0.5,3.1,1.2,4.4,2.2c1.2,1,2.1,2.2,2.8,3.8 c0.6,1.5,1,3.3,1,5.4c0,3.9-1.2,7-3.6,9.1c-2.4,2.1-5.7,3.2-9.9,3.2H351.1z M355.6,139.8h3.2c2.8,0,4.9-0.7,6.4-2.2 c1.5-1.5,2.2-3.6,2.2-6.4c0-3-0.7-5.2-2.2-6.5c-1.5-1.4-3.8-2-6.8-2h-2.7V139.8z"></path> </g> <g id="XMLID_147_"> <g id="g40_3_" transform="translate(152.5359,127.8267)"> <g id="path42_3_"> <path id="XMLID_162_" class="st0" d="M-48-15.1L-54-84.8c-0.3-2.9-2-6-5.8-6c-3.8,0-5.5,3.3-5.8,6.1l-3.8,42.4l-5.9-0.5 l3.8-42.5c0.7-6.8,5.5-11.5,11.7-11.5c6.2,0,11,4.7,11.7,11.4l6,69.8L-48-15.1z"></path> </g> </g> <g id="XMLID_160_"> <rect id="XMLID_161_" x="92" y="82.9" class="st0" width="6" height="9.6"></rect> </g> <g id="XMLID_158_"> <rect id="XMLID_159_" x="92" y="102.9" class="st0" width="6" height="9.6"></rect> </g> <g id="XMLID_156_"> <rect id="XMLID_157_" x="81.8" y="64.9" class="st0" width="21.1" height="6"></rect> </g> <g id="XMLID_154_"> <rect id="XMLID_155_" x="85.2" y="48.9" class="st0" width="15.6" height="6"></rect> </g> <g id="XMLID_151_"> <path id="XMLID_153_" class="st1" d="M117.5,30.7v81.3c22.4,0,40.6-18.2,40.6-40.6C158.2,48.9,140,30.7,117.5,30.7z"></path> </g> <g id="XMLID_148_"> <polygon id="XMLID_149_" class="st1" points="43.6,30.7 43.6,89 43.6,89 72.8,59.8 "></polygon> </g> </g> </g> </svg> 